HIERARCHY
ROOT Hips
{
	OFFSET -8.573047 99.095428 52.622734
	CHANNELS 6 Xposition Yposition Zposition Xrotation Yrotation Zrotation
	JOINT LeftUpLeg
	{
		OFFSET 8.910001 -6.269997 0.000000
		CHANNELS 6 Xposition Yposition Zposition Xrotation Yrotation Zrotation
		JOINT LeftLeg
		{
			OFFSET 3.858774 -44.428230 -5.033421
			CHANNELS 6 Xposition Yposition Zposition Xrotation Yrotation Zrotation
			JOINT LeftFoot
			{
				OFFSET 3.498571 -40.269054 -4.767723
				CHANNELS 6 Xposition Yposition Zposition Xrotation Yrotation Zrotation
				JOINT LeftToeBase
				{
					OFFSET 0.000009 -6.262318 12.954720
					CHANNELS 6 Xposition Yposition Zposition Xrotation Yrotation Zrotation
					JOINT LeftToeBaseEnd
					{
						OFFSET 0.000000 0.000000 8.000000
						CHANNELS 6 Xposition Yposition Zposition Xrotation Yrotation Zrotation
						End Site
						{
							OFFSET 0.000000 8.000000 0.000000
						}
					}
				}
			}
		}
	}
	JOINT RightUpLeg
	{
		OFFSET -8.910001 -6.269997 0.000000
		CHANNELS 6 Xposition Yposition Zposition Xrotation Yrotation Zrotation
		JOINT RightLeg
		{
			OFFSET -3.274891 -44.516289 -4.654919
			CHANNELS 6 Xposition Yposition Zposition Xrotation Yrotation Zrotation
			JOINT RightFoot
			{
				OFFSET -2.969807 -40.366165 -4.280296
				CHANNELS 6 Xposition Yposition Zposition Xrotation Yrotation Zrotation
				JOINT RightToeBase
				{
					OFFSET -0.001085 -6.262317 12.954750
					CHANNELS 6 Xposition Yposition Zposition Xrotation Yrotation Zrotation
					JOINT RightToeBaseEnd
					{
						OFFSET -0.000669 -0.000407 8.000004
						CHANNELS 6 Xposition Yposition Zposition Xrotation Yrotation Zrotation
						End Site
						{
							OFFSET 0.000000 8.000001 0.000404
						}
					}
				}
			}
		}
	}
	JOINT Spine
	{
		OFFSET 0.000000 7.000000 0.000000
		CHANNELS 6 Xposition Yposition Zposition Xrotation Yrotation Zrotation
		JOINT Spine1
		{
			OFFSET 0.016452 12.471863 -2.212891
			CHANNELS 3 Xrotation Yrotation Zrotation
			JOINT Spine2
			{
				OFFSET 0.008337 12.616928 -1.121449
				CHANNELS 3 Xrotation Yrotation Zrotation
				JOINT LeftShoulder
				{
					OFFSET 7.000183 14.255112 -0.024235
					CHANNELS 6 Xposition Yposition Zposition Xrotation Yrotation Zrotation
					JOINT LeftArm
					{
						OFFSET 10.707253 0.000000 0.000000
						CHANNELS 6 Xposition Yposition Zposition Xrotation Yrotation Zrotation
						JOINT LeftForeArm
						{
							OFFSET 27.305471 -0.000366 0.000008
							CHANNELS 6 Xposition Yposition Zposition Xrotation Yrotation Zrotation
							JOINT LeftHand
							{
								OFFSET 26.697147 -0.000336 -0.000004
								CHANNELS 6 Xposition Yposition Zposition Xrotation Yrotation Zrotation
								JOINT LeftHandThumb1
								{
									OFFSET 4.348755 -0.791260 4.283787
									CHANNELS 6 Xposition Yposition Zposition Xrotation Yrotation Zrotation
									JOINT LeftHandThumb2
									{
										OFFSET 2.512581 -0.534927 0.708366
										CHANNELS 6 Xposition Yposition Zposition Xrotation Yrotation Zrotation
										JOINT LeftHandThumb3
										{
											OFFSET 2.543137 -0.000031 0.000011
											CHANNELS 6 Xposition Yposition Zposition Xrotation Yrotation Zrotation
											JOINT LeftHandThumb4
											{
												OFFSET 2.666748 -0.000015 -0.000008
												CHANNELS 6 Xposition Yposition Zposition Xrotation Yrotation Zrotation
												End Site
												{
													OFFSET 0.000023 2.666748 -0.004532
												}
											}
										}
									}
								}
								JOINT LeftHandIndex1
								{
									OFFSET 8.821983 0.205521 3.471325
									CHANNELS 6 Xposition Yposition Zposition Xrotation Yrotation Zrotation
									JOINT LeftHandIndex2
									{
										OFFSET 4.225319 -0.000061 -0.000263
										CHANNELS 6 Xposition Yposition Zposition Xrotation Yrotation Zrotation
										JOINT LeftHandIndex3
										{
											OFFSET 2.652321 -0.000183 -0.092785
											CHANNELS 6 Xposition Yposition Zposition Xrotation Yrotation Zrotation
											JOINT LeftHandIndex4
											{
												OFFSET 1.953438 -0.000244 -0.136719
												CHANNELS 6 Xposition Yposition Zposition Xrotation Yrotation Zrotation
												End Site
												{
													OFFSET 0.000000 1.958221 -0.003326
												}
											}
										}
									}
								}
								JOINT LeftHandMiddle1
								{
									OFFSET 8.809891 0.503006 1.303833
									CHANNELS 6 Xposition Yposition Zposition Xrotation Yrotation Zrotation
									JOINT LeftHandMiddle2
									{
										OFFSET 4.863251 -0.000061 0.000000
										CHANNELS 6 Xposition Yposition Zposition Xrotation Yrotation Zrotation
										JOINT LeftHandMiddle3
										{
											OFFSET 2.765236 -0.000046 -0.000172
											CHANNELS 6 Xposition Yposition Zposition Xrotation Yrotation Zrotation
											JOINT LeftHandMiddle4
											{
												OFFSET 2.005630 -0.000031 -0.000252
												CHANNELS 6 Xposition Yposition Zposition Xrotation Yrotation Zrotation
												End Site
												{
													OFFSET 0.000031 2.005630 -0.003410
												}
											}
										}
									}
								}
								JOINT LeftHandRing1
								{
									OFFSET 8.893768 0.378464 -0.793804
									CHANNELS 6 Xposition Yposition Zposition Xrotation Yrotation Zrotation
									JOINT LeftHandRing2
									{
										OFFSET 4.537758 -0.000061 -0.000282
										CHANNELS 6 Xposition Yposition Zposition Xrotation Yrotation Zrotation
										JOINT LeftHandRing3
										{
											OFFSET 2.304527 -0.000031 -0.000286
											CHANNELS 6 Xposition Yposition Zposition Xrotation Yrotation Zrotation
											JOINT LeftHandRing4
											{
												OFFSET 1.923347 -0.000031 -0.000359
												CHANNELS 6 Xposition Yposition Zposition Xrotation Yrotation Zrotation
												End Site
												{
													OFFSET 0.000023 1.923355 -0.003269
												}
											}
										}
									}
								}
								JOINT LeftHandPinky1
								{
									OFFSET 8.882278 -0.317368 -2.489822
									CHANNELS 6 Xposition Yposition Zposition Xrotation Yrotation Zrotation
									JOINT LeftHandPinky2
									{
										OFFSET 3.044098 -0.000046 0.000000
										CHANNELS 6 Xposition Yposition Zposition Xrotation Yrotation Zrotation
										JOINT LeftHandPinky3
										{
											OFFSET 1.974503 -0.000061 0.000000
											CHANNELS 6 Xposition Yposition Zposition Xrotation Yrotation Zrotation
											JOINT LeftHandPinky4
											{
												OFFSET 1.666611 -0.000061 0.000000
												CHANNELS 6 Xposition Yposition Zposition Xrotation Yrotation Zrotation
												End Site
												{
													OFFSET 0.000084 1.666611 -0.002834
												}
											}
										}
									}
								}
							}
						}
					}
				}
				JOINT RightShoulder
				{
					OFFSET -6.999821 14.255295 -0.024235
					CHANNELS 6 Xposition Yposition Zposition Xrotation Yrotation Zrotation
					JOINT RightArm
					{
						OFFSET -10.707279 0.000565 0.000000
						CHANNELS 6 Xposition Yposition Zposition Xrotation Yrotation Zrotation
						JOINT RightForeArm
						{
							OFFSET -27.305601 0.000351 0.000004
							CHANNELS 6 Xposition Yposition Zposition Xrotation Yrotation Zrotation
							JOINT RightHand
							{
								OFFSET -26.696999 0.000336 -0.000004
								CHANNELS 6 Xposition Yposition Zposition Xrotation Yrotation Zrotation
								JOINT RightHandThumb1
								{
									OFFSET -4.348389 -0.791168 4.284168
									CHANNELS 6 Xposition Yposition Zposition Xrotation Yrotation Zrotation
									JOINT RightHandThumb2
									{
										OFFSET -2.512535 -0.534851 0.708588
										CHANNELS 6 Xposition Yposition Zposition Xrotation Yrotation Zrotation
										JOINT RightHandThumb3
										{
											OFFSET -2.541588 0.000183 0.088821
											CHANNELS 6 Xposition Yposition Zposition Xrotation Yrotation Zrotation
											JOINT RightHandThumb4
											{
												OFFSET -2.665123 0.000168 0.093136
												CHANNELS 6 Xposition Yposition Zposition Xrotation Yrotation Zrotation
												End Site
												{
													OFFSET -0.000015 2.666748 -0.004532
												}
											}
										}
									}
								}
								JOINT RightHandIndex1
								{
									OFFSET -8.821671 0.205734 3.472099
									CHANNELS 6 Xposition Yposition Zposition Xrotation Yrotation Zrotation
									JOINT RightHandIndex2
									{
										OFFSET -4.225319 0.000061 0.000114
										CHANNELS 6 Xposition Yposition Zposition Xrotation Yrotation Zrotation
										JOINT RightHandIndex3
										{
											OFFSET -2.652321 0.000183 0.092697
											CHANNELS 6 Xposition Yposition Zposition Xrotation Yrotation Zrotation
											JOINT RightHandIndex4
											{
												OFFSET -1.953445 0.000259 0.136658
												CHANNELS 6 Xposition Yposition Zposition Xrotation Yrotation Zrotation
												End Site
												{
													OFFSET 0.000023 1.958221 -0.003330
												}
											}
										}
									}
								}
								JOINT RightHandMiddle1
								{
									OFFSET -8.809761 0.503220 1.304604
									CHANNELS 6 Xposition Yposition Zposition Xrotation Yrotation Zrotation
									JOINT RightHandMiddle2
									{
										OFFSET -4.863251 0.000061 0.000134
										CHANNELS 6 Xposition Yposition Zposition Xrotation Yrotation Zrotation
										JOINT RightHandMiddle3
										{
											OFFSET -2.763550 0.000198 0.096584
											CHANNELS 6 Xposition Yposition Zposition Xrotation Yrotation Zrotation
											JOINT RightHandMiddle4
											{
												OFFSET -2.000740 0.000259 0.139965
												CHANNELS 6 Xposition Yposition Zposition Xrotation Yrotation Zrotation
												End Site
												{
													OFFSET 0.000023 2.005630 -0.003410
												}
											}
										}
									}
								}
								JOINT RightHandRing1
								{
									OFFSET -8.893829 0.378677 -0.793022
									CHANNELS 6 Xposition Yposition Zposition Xrotation Yrotation Zrotation
									JOINT RightHandRing2
									{
										OFFSET -4.537766 0.000061 0.000122
										CHANNELS 6 Xposition Yposition Zposition Xrotation Yrotation Zrotation
										JOINT RightHandRing3
										{
											OFFSET -2.303116 0.000168 0.080490
											CHANNELS 6 Xposition Yposition Zposition Xrotation Yrotation Zrotation
											JOINT RightHandRing4
											{
												OFFSET -1.918663 0.000259 0.134224
												CHANNELS 6 Xposition Yposition Zposition Xrotation Yrotation Zrotation
												End Site
												{
													OFFSET 0.000023 1.923355 -0.003269
												}
											}
										}
									}
								}
								JOINT RightHandPinky1
								{
									OFFSET -8.882500 -0.317154 -2.489040
									CHANNELS 6 Xposition Yposition Zposition Xrotation Yrotation Zrotation
									JOINT RightHandPinky2
									{
										OFFSET -3.047798 0.000046 0.000084
										CHANNELS 6 Xposition Yposition Zposition Xrotation Yrotation Zrotation
										JOINT RightHandPinky3
										{
											OFFSET -1.975693 0.000137 0.069050
											CHANNELS 6 Xposition Yposition Zposition Xrotation Yrotation Zrotation
											JOINT RightHandPinky4
											{
												OFFSET -1.664574 0.000259 0.116447
												CHANNELS 6 Xposition Yposition Zposition Xrotation Yrotation Zrotation
												End Site
												{
													OFFSET 0.000092 1.668640 -0.002842
												}
											}
										}
									}
								}
							}
						}
					}
				}
				JOINT Neck
				{
					OFFSET 0.000160 12.666656 -0.021534
					CHANNELS 6 Xposition Yposition Zposition Xrotation Yrotation Zrotation
					JOINT Head
					{
						OFFSET -0.006689 9.847397 1.740372
						CHANNELS 3 Xrotation Yrotation Zrotation
						JOINT HeadEnd
						{
							OFFSET 0.000000 20.000000 0.000000
							CHANNELS 3 Xrotation Yrotation Zrotation
							End Site
							{
								OFFSET 0.000000 20.000000 0.000000
							}
						}
					}
				}
			}
		}
	}
}
MOTION
Frames: 3
Frame Time: 0.008333
-65.583084 98.317177 55.013550 5.746908 124.032410 -7.407563 8.910000 -6.270012 0.000008 -6.999196 -7.338254 10.340377 3.858778 -44.428234 -5.033419 9.834905 0.754381 -0.862202 3.498572 -40.269043 -4.767719 1.722720 -5.554829 -7.429601 0.000010 -6.262318 12.954731 -6.058108 -31.370803 -2.263459 -0.000000 0.000000 8.000000 -0.000001 -0.000001 -0.000000 -8.909999 -6.270014 0.000006 0.059555 -20.722847 11.027847 -3.274896 -44.516285 -4.654922 5.592418 -1.459624 1.650712 -2.969799 -40.366169 -4.280296 -7.625367 -19.289545 -10.860470 -0.001083 -6.262318 12.954752 1.140467 31.432978 -0.344400 -0.000663 -0.000406 8.000004 -0.000000 0.000001 0.000000 0.000001 6.999997 -0.000011 1.934244 2.160280 2.739875 2.317748 4.435303 -0.132825 2.333869 4.311775 0.623008 7.000177 14.255099 -0.024231 10.116998 -3.838801 -9.803962 10.707230 0.000001 0.000023 -24.612706 10.401585 -65.396466 27.305468 -0.000396 0.000015 0.032377 -8.223379 -0.063635 26.697128 -0.000365 0.000005 28.748054 3.129996 -2.733397 4.348735 -0.791257 4.283795 -0.000002 0.000001 -0.000001 2.512568 -0.534927 0.708361 0.000000 -0.000001 0.000002 2.543130 -0.000032 0.000018 0.000002 -0.000001 0.000002 2.666761 0.000001 -0.000010 -0.000000 -0.000000 0.000001 8.821964 0.205523 3.471338 -0.000002 0.000001 -0.000001 4.225312 -0.000053 -0.000262 0.000001 -0.000000 -0.000046 2.652316 -0.000170 -0.092757 -0.000001 0.000001 -0.000001 1.953436 -0.000242 -0.136700 -0.000002 0.000000 -0.000002 8.809885 0.503023 1.303845 -0.000002 0.000000 -0.000000 4.863236 -0.000070 0.000020 -0.000000 -0.000001 0.000098 2.765249 -0.000043 -0.000173 -0.000000 0.000000 0.000001 2.005631 -0.000033 -0.000255 0.000001 -0.000001 0.000002 8.893758 0.378452 -0.793800 -0.000002 0.000000 0.000001 4.537756 -0.000048 -0.000291 -0.000001 -0.000001 0.000001 2.304529 -0.000026 -0.000287 -0.000003 0.000000 0.000002 1.923323 -0.000047 -0.000353 -0.000000 -0.000000 0.000000 8.882274 -0.317367 -2.489821 -0.000001 0.000001 -0.000001 3.044088 -0.000018 0.000007 -1.155973 0.472340 -3.119550 1.974500 -0.000077 0.000019 0.000001 -0.000001 0.000001 1.666607 -0.000087 -0.000002 -0.000003 -0.000001 0.000001 -6.999821 14.255291 -0.024233 -5.353549 5.048137 -14.389142 -10.707272 0.000575 -0.000011 -39.789390 34.461067 41.406427 -27.305603 0.000303 -0.000002 0.004427 1.147525 0.000983 -26.697014 0.000324 0.000002 25.822575 -13.661936 -65.928708 -4.348397 -0.791133 4.284169 -0.000000 0.000000 0.000000 -2.512512 -0.534849 0.708585 0.000000 0.000000 -0.000000 -2.541597 0.000183 0.088822 -0.000000 0.000000 0.000004 -2.665131 0.000182 0.093134 0.000000 0.000000 0.000000 -8.821677 0.205724 3.472106 -0.000000 0.000000 -0.000000 -4.225342 0.000059 0.000112 -0.000002 -0.000000 -0.000069 -2.652302 0.000205 0.092705 -0.000000 -0.000000 0.000001 -1.953441 0.000274 0.136662 0.000000 -0.000000 0.000001 -8.809765 0.503230 1.304604 -7.094816 -7.244964 83.720825 -4.863256 0.000078 0.000132 -7.094809 -7.244971 83.720702 -2.763556 0.000204 0.096581 -7.094833 -7.244932 83.720757 -2.000762 0.000230 0.139968 0.000000 -0.000000 -0.000001 -8.893837 0.378690 -0.793014 -6.411521 -6.645428 83.882482 -4.537752 0.000067 0.000127 -6.411517 -6.645419 83.882455 -2.303109 0.000157 0.080482 -6.411498 -6.645443 83.882468 -1.918663 0.000258 0.134212 -0.000000 -0.000000 -0.000000 -8.882497 -0.317134 -2.489038 -3.275875 -3.837891 84.432729 -3.047782 0.000048 0.000091 -3.275880 -3.837878 84.431281 -1.975705 0.000143 0.069040 -3.275757 -3.838025 84.432688 -1.664561 0.000259 0.116455 0.000000 -0.000002 0.000000 0.000168 12.666643 -0.021532 15.755981 1.744719 15.032413 2.030360 -0.167422 -0.095671 -0.000001 0.000003 0.000000 
-65.615883 98.317741 55.125656 5.729921 123.928441 -7.401686 8.909996 -6.270005 0.000011 -6.932761 -7.221778 10.409449 3.858768 -44.428230 -5.033412 9.565535 0.714886 -0.839743 3.498573 -40.269047 -4.767729 1.887249 -5.518074 -7.480167 0.000012 -6.262317 12.954735 -6.072122 -31.368976 -2.287491 0.000003 0.000000 7.999996 -0.000000 -0.000001 -0.000000 -8.910012 -6.270016 0.000011 0.063271 -20.710440 11.117686 -3.274893 -44.516289 -4.654919 5.472997 -1.443786 1.618774 -2.969809 -40.366165 -4.280284 -7.531134 -19.215168 -10.903657 -0.001079 -6.262317 12.954766 1.142477 31.432770 -0.338317 -0.000671 -0.000406 8.000004 0.000000 0.000004 0.000000 -0.000007 6.999996 -0.000006 2.011397 2.155499 2.737754 2.326719 4.417220 -0.143128 2.343426 4.295101 0.607755 7.000182 14.255101 -0.024230 10.099555 -3.862632 -9.794962 10.707251 -0.000005 -0.000002 -24.473089 10.261319 -65.556900 27.305462 -0.000382 0.000012 0.032690 -8.300856 -0.064267 26.697147 -0.000363 -0.000004 28.655382 3.123451 -2.783334 4.348754 -0.791261 4.283792 -0.000000 -0.000001 -0.000000 2.512570 -0.534928 0.708371 -0.000001 0.000000 0.000001 2.543139 -0.000030 0.000000 -0.000002 -0.000000 0.000002 2.666751 -0.000001 -0.000006 -0.000000 -0.000000 0.000002 8.821987 0.205521 3.471326 -0.000000 -0.000000 0.000001 4.225312 -0.000056 -0.000263 -0.000003 -0.000001 -0.000067 2.652308 -0.000199 -0.092776 -0.000002 -0.000002 0.000001 1.953421 -0.000229 -0.136698 -0.000000 0.000000 0.000001 8.809901 0.503006 1.303830 0.000000 -0.000000 -0.000001 4.863229 -0.000087 -0.000009 -0.000001 -0.000001 0.000098 2.765238 -0.000064 -0.000186 0.000001 0.000001 -0.000000 2.005613 -0.000027 -0.000259 -0.000003 0.000000 0.000001 8.893769 0.378448 -0.793800 -0.000000 -0.000001 0.000002 4.537739 -0.000077 -0.000272 -0.000001 0.000000 -0.000001 2.304533 -0.000028 -0.000290 -0.000000 0.000000 -0.000002 1.923331 -0.000055 -0.000357 -0.000001 -0.000000 -0.000002 8.882293 -0.317383 -2.489816 -0.000000 0.000000 0.000000 3.044118 -0.000041 -0.000001 -1.156016 0.472369 -3.119608 1.974502 -0.000048 0.000009 0.000001 0.000000 0.000000 1.666618 -0.000060 -0.000002 -0.000001 0.000000 0.000000 -6.999825 14.255289 -0.024232 -5.234471 5.081517 -14.490660 -10.707277 0.000550 0.000011 -37.804182 36.183620 40.661793 -27.305590 0.000335 -0.000008 0.006784 1.232358 -0.013224 -26.697006 0.000349 -0.000004 27.632990 -13.450362 -66.327216 -4.348372 -0.791165 4.284164 0.000001 -0.000000 -0.000004 -2.512536 -0.534849 0.708576 -0.000000 0.000000 0.000001 -2.541592 0.000185 0.088818 -0.000000 -0.000000 0.000002 -2.665120 0.000169 0.093139 0.000000 0.000000 0.000002 -8.821642 0.205706 3.472106 0.000000 -0.000001 -0.000005 -4.225341 0.000044 0.000125 -0.000003 -0.000001 -0.000072 -2.652325 0.000200 0.092702 0.000001 0.000000 -0.000001 -1.953440 0.000279 0.136664 -0.000001 -0.000002 0.000000 -8.809755 0.503229 1.304601 -7.094815 -7.244964 83.720818 -4.863266 0.000044 0.000134 -7.094806 -7.244969 83.720702 -2.763539 0.000209 0.096585 -7.094821 -7.244929 83.720818 -2.000755 0.000245 0.139979 0.000000 0.000002 0.000000 -8.893819 0.378687 -0.793023 -6.411521 -6.645436 83.882482 -4.537756 0.000042 0.000120 -6.411526 -6.645421 83.882441 -2.303110 0.000154 0.080487 -6.411495 -6.645442 83.882468 -1.918671 0.000290 0.134215 0.000000 -0.000000 -0.000000 -8.882463 -0.317154 -2.489038 -3.275869 -3.837886 84.432715 -3.047775 0.000050 0.000084 -3.275880 -3.837872 84.431267 -1.975672 0.000131 0.069052 -3.275763 -3.838021 84.432702 -1.664568 0.000259 0.116445 0.000000 0.000000 0.000001 0.000165 12.666631 -0.021536 15.816652 1.668814 14.965848 1.989458 -0.229328 -0.131016 0.000001 0.000001 -0.000001 
-65.660385 98.308914 55.255714 5.699715 123.804555 -7.389032 8.910002 -6.269997 0.000011 -6.876331 -7.179749 10.471505 3.858774 -44.428219 -5.033419 9.320475 0.680710 -0.819109 3.498578 -40.269047 -4.767728 2.021123 -5.385666 -7.506714 0.000005 -6.262318 12.954713 -6.078553 -31.366848 -2.348588 -0.000001 0.000001 7.999996 -0.000000 0.000000 0.000000 -8.909999 -6.270002 0.000007 -0.016618 -20.593422 11.200198 -3.274898 -44.516296 -4.654931 5.450141 -1.444516 1.612826 -2.969811 -40.366161 -4.280293 -7.501090 -19.212537 -10.998178 -0.001081 -6.262317 12.954753 1.148273 31.434457 -0.299597 -0.000674 -0.000407 8.000012 -0.000000 0.000004 0.000000 0.000006 7.000008 -0.000007 2.162183 2.152894 2.731674 2.318996 4.410582 -0.123275 2.335944 4.285963 0.621472 7.000185 14.255102 -0.024251 10.049916 -3.856347 -9.780160 10.707261 -0.000005 0.000015 -24.459322 10.201820 -65.799850 27.305450 -0.000388 0.000006 0.032719 -8.307202 -0.064274 26.697155 -0.000344 -0.000005 28.819918 3.013844 -2.853465 4.348737 -0.791259 4.283790 -0.000001 -0.000001 0.000001 2.512584 -0.534926 0.708372 -0.000001 -0.000000 -0.000001 2.543150 -0.000032 0.000017 0.000000 -0.000000 0.000001 2.666758 -0.000002 0.000001 0.000001 0.000001 -0.000001 8.821980 0.205516 3.471320 0.000002 -0.000000 0.000001 4.225303 -0.000044 -0.000257 -0.000000 0.000000 -0.000054 2.652310 -0.000173 -0.092786 0.000002 0.000001 -0.000004 1.953430 -0.000233 -0.136722 0.000001 -0.000000 -0.000000 8.809883 0.503002 1.303831 0.000001 -0.000000 -0.000000 4.863244 -0.000087 0.000006 0.000001 -0.000000 0.000096 2.765233 -0.000052 -0.000183 0.000003 -0.000000 0.000001 2.005628 -0.000021 -0.000265 0.000002 0.000000 0.000001 8.893756 0.378462 -0.793811 0.000000 -0.000000 0.000002 4.537748 -0.000058 -0.000263 -0.000001 0.000000 -0.000002 2.304525 -0.000015 -0.000291 0.000000 0.000001 0.000001 1.923335 -0.000045 -0.000354 -0.000001 0.000001 -0.000001 8.882278 -0.317356 -2.489827 0.000000 0.000000 -0.000000 3.044107 -0.000016 0.000008 -1.155964 0.472344 -3.119497 1.974501 -0.000076 -0.000002 0.000000 0.000000 0.000001 1.666619 -0.000061 0.000015 0.000000 -0.000000 -0.000000 -6.999817 14.255274 -0.024254 -5.041762 4.991974 -14.431122 -10.707274 0.000584 0.000004 -35.985637 38.016652 39.689755 -27.305613 0.000338 0.000011 0.008069 1.234077 -0.015773 -26.697018 0.000330 -0.000008 29.048784 -13.153757 -66.844842 -4.348398 -0.791171 4.284168 -0.000000 0.000000 0.000001 -2.512523 -0.534832 0.708598 0.000000 0.000001 0.000002 -2.541572 0.000167 0.088819 -0.000001 -0.000001 -0.000001 -2.665124 0.000172 0.093127 0.000000 0.000000 0.000000 -8.821667 0.205718 3.472104 -0.000000 -0.000001 -0.000002 -4.225338 0.000054 0.000103 -0.000002 -0.000000 -0.000071 -2.652296 0.000187 0.092700 -0.000000 0.000001 -0.000001 -1.953433 0.000257 0.136650 0.000000 0.000000 0.000001 -8.809759 0.503224 1.304607 -7.094816 -7.244962 83.720805 -4.863287 0.000049 0.000136 -7.094804 -7.244972 83.720730 -2.763570 0.000213 0.096581 -7.094830 -7.244930 83.720784 -2.000754 0.000273 0.139970 0.000001 0.000001 0.000000 -8.893819 0.378683 -0.793014 -6.411525 -6.645430 83.882468 -4.537761 0.000061 0.000127 -6.411524 -6.645418 83.882441 -2.303098 0.000160 0.080486 -6.411498 -6.645445 83.882462 -1.918665 0.000261 0.134206 -0.000000 0.000000 0.000001 -8.882490 -0.317149 -2.489037 -3.275865 -3.837885 84.432708 -3.047790 0.000013 0.000094 -3.275882 -3.837871 84.431288 -1.975694 0.000137 0.069042 -3.275759 -3.838031 84.432708 -1.664560 0.000321 0.116436 -0.000001 -0.000000 0.000001 0.000164 12.666625 -0.021555 15.885012 1.573918 14.944662 1.958535 -0.276852 -0.129176 0.000002 0.000002 -0.000002 
